<svg width="40" height="40" viewBox="0 0 40 40" fill="none" xmlns="http://www.w3.org/2000/svg">
<rect x="10" y="11" width="20" height="18" fill="white"/>
<path d="M39.1633 10.31C38.9374 9.45878 38.4917 8.68189 37.871 8.0571C37.2503 7.43231 36.4764 6.98156 35.6267 6.74999C32.5083 5.90833 20 5.90833 20 5.90833C20 5.90833 7.49167 5.90833 4.37167 6.74999C3.52235 6.98197 2.74882 7.43288 2.12846 8.05763C1.5081 8.68238 1.06265 9.45906 0.836667 10.31C0 13.45 0 20 0 20C0 20 0 26.55 0.836667 29.69C1.06264 30.5412 1.50829 31.3181 2.12899 31.9429C2.74968 32.5677 3.52363 33.0184 4.37333 33.25C7.49167 34.0917 20 34.0917 20 34.0917C20 34.0917 32.5083 34.0917 35.6283 33.25C36.4781 33.0186 37.2521 32.5679 37.8729 31.9431C38.4936 31.3183 38.9392 30.5413 39.165 29.69C40 26.55 40 20 40 20C40 20 40 13.45 39.1633 10.31ZM15.9083 25.9467V14.0533L26.3633 20L15.9083 25.9467Z" fill="#FF0000"/>
</svg>
