<svg width="40" height="40" viewBox="0 0 40 40" fill="none" xmlns="http://www.w3.org/2000/svg">
<g clip-path="url(#clip0_101_4)">
<path d="M2 18L8 6.5L20 2L31.5 5.5L38 18V24L31.5 35L19.5 38.5L12.5 35L4.5 35.5L2 24V18Z" fill="#25D366"/>
<path d="M29.1202 23.9699C28.6252 23.7216 26.1902 22.5249 25.7369 22.3583C25.2819 22.1933 24.9519 22.1116 24.6202 22.6083C24.2919 23.1033 23.3419 24.2183 23.0535 24.5483C22.7652 24.8799 22.4752 24.9199 21.9802 24.6733C21.4852 24.4233 19.8885 23.9016 17.9969 22.2149C16.5252 20.9016 15.5302 19.2799 15.2419 18.7833C14.9535 18.2883 15.2119 18.0199 15.4585 17.7733C15.6819 17.5516 15.9552 17.1949 16.2019 16.9066C16.4502 16.6166 16.5319 16.4099 16.6985 16.0783C16.8635 15.7483 16.7819 15.4599 16.6569 15.2116C16.5319 14.9633 15.5419 12.5249 15.1302 11.5333C14.7269 10.5683 14.3185 10.6999 14.0152 10.6833C13.7269 10.6699 13.3969 10.6666 13.0652 10.6666C12.7352 10.6666 12.1985 10.7899 11.7452 11.2866C11.2919 11.7816 10.0119 12.9799 10.0119 15.4183C10.0119 17.8549 11.7869 20.2099 12.0335 20.5416C12.2819 20.8716 15.5269 25.8749 20.4952 28.0199C21.6769 28.5299 22.5985 28.8349 23.3185 29.0616C24.5052 29.4399 25.5852 29.3866 26.4369 29.2583C27.3885 29.1166 29.3669 28.0599 29.7802 26.9033C30.1935 25.7466 30.1935 24.7549 30.0685 24.5483C29.9452 24.3416 29.6152 24.2183 29.1185 23.9699H29.1202ZM20.0835 36.3083H20.0769C17.1265 36.3085 14.2303 35.5153 11.6919 34.0116L11.0902 33.6549L4.85522 35.2916L6.51855 29.2116L6.12688 28.5883C4.47761 25.9621 3.60512 22.9228 3.61021 19.8216C3.61188 10.7383 11.0035 3.34828 20.0902 3.34828C24.4902 3.34828 28.6269 5.06495 31.7369 8.17828C33.2713 9.70597 34.4876 11.5228 35.3152 13.5237C36.1429 15.5245 36.5655 17.6697 36.5585 19.8349C36.5535 28.9183 29.1635 36.3083 20.0835 36.3083V36.3083ZM34.1052 5.81328C32.2689 3.96482 30.0839 2.49917 27.677 1.50128C25.2701 0.503386 22.6891 -0.00691582 20.0835 -5.37744e-05C9.15855 -5.37744e-05 0.266882 8.89161 0.261882 19.8199C0.261882 23.3133 1.17355 26.7233 2.90855 29.7283L0.0952148 39.9999L10.6035 37.2433C13.5095 38.8265 16.7659 39.6562 20.0752 39.6566H20.0835C31.0069 39.6566 39.9002 30.7649 39.9052 19.8349C39.9133 17.2304 39.4048 14.6501 38.4093 12.2433C37.4137 9.83656 35.9508 7.65106 34.1052 5.81328V5.81328Z" fill="white"/>
</g>
<defs>
<clipPath id="clip0_101_4">
<rect width="40" height="40" fill="white"/>
</clipPath>
</defs>
</svg>
