<svg width="40" height="40" viewBox="0 0 40 40" fill="none" xmlns="http://www.w3.org/2000/svg">
<g clip-path="url(#clip0_101_22)">
<path d="M29.305 0.104975C28.6695 0.0961887 28.0544 0.329803 27.585 0.758309C27.5844 0.758309 27.5839 0.758309 27.5833 0.758309C27.5546 0.782238 27.5268 0.807256 27.5 0.833309L14.2133 15.5266L6.45833 9.16664L5.78 8.58331C5.54604 8.38884 5.26332 8.26211 4.96248 8.21687C4.66163 8.17162 4.35414 8.20958 4.07333 8.32664C4.06665 8.32938 4.05998 8.33215 4.05333 8.33498L1.025 9.58498C0.981391 9.60315 0.938575 9.62317 0.896667 9.64498C0.870135 9.65981 0.844014 9.67538 0.818333 9.69164C0.796956 9.7034 0.77584 9.71562 0.755 9.72831C0.727783 9.74641 0.701105 9.76531 0.675 9.78498C0.658079 9.79799 0.641409 9.81132 0.625 9.82498C0.599992 9.84428 0.575538 9.86429 0.551667 9.88498C0.531222 9.90282 0.511216 9.92116 0.491667 9.93998C0.47343 9.959 0.455648 9.97845 0.438333 9.99831C0.419472 10.019 0.401132 10.0401 0.383333 10.0616C0.363205 10.0855 0.343753 10.11 0.325 10.135C0.311275 10.1536 0.297939 10.1725 0.285 10.1916C0.266401 10.2189 0.248616 10.2467 0.231667 10.275C0.220165 10.2942 0.209051 10.3136 0.198333 10.3333C0.184232 10.3607 0.170894 10.3885 0.158333 10.4166C0.146608 10.4414 0.135494 10.4664 0.125 10.4916C0.11554 10.5159 0.106649 10.5403 0.0983333 10.565C0.0887975 10.5909 0.0799059 10.617 0.0716667 10.6433C0.0624639 10.6736 0.0541272 10.7042 0.0466667 10.735C0.0406535 10.7571 0.0350968 10.7793 0.03 10.8016C0.0247374 10.8315 0.0202913 10.8615 0.0166667 10.8916C0.0126343 10.9193 0.00929993 10.9471 0.00666667 10.975C0.00252875 11.021 0.000304603 11.0671 0 11.1133L0 28.89C0.00193858 29.2172 0.100171 29.5366 0.282447 29.8084C0.464723 30.0802 0.722976 30.2923 1.025 30.4183L4.05333 31.6916C4.33801 31.8101 4.64996 31.8473 4.9545 31.799C5.25904 31.7508 5.54423 31.619 5.77833 31.4183L6.45833 30.835L14.2133 24.4766L27.5017 39.1683C27.5405 39.2057 27.5805 39.2418 27.6217 39.2766C27.6526 39.3052 27.6843 39.333 27.7167 39.36C27.7483 39.3841 27.7806 39.4074 27.8133 39.43C27.8477 39.4553 27.8827 39.4798 27.9183 39.5033C27.9539 39.5253 27.99 39.5464 28.0267 39.5666C28.0623 39.5875 28.0984 39.6075 28.135 39.6266C28.1723 39.6448 28.2101 39.662 28.2483 39.6783C28.2868 39.696 28.3257 39.7126 28.365 39.7283C28.4052 39.7432 28.4458 39.7571 28.4867 39.77C28.5231 39.7819 28.5598 39.793 28.5967 39.8033C28.6408 39.8156 28.6853 39.8268 28.73 39.8366C28.7676 39.8453 28.8054 39.8531 28.8433 39.86C28.8849 39.8666 28.9265 39.8721 28.9683 39.8766C29.0099 39.8821 29.0516 39.8866 29.0933 39.89C29.1338 39.8926 29.1744 39.8943 29.215 39.895C29.2578 39.8961 29.3006 39.8961 29.3433 39.895C29.3867 39.8933 29.4301 39.8905 29.4733 39.8866C29.5106 39.8836 29.5479 39.8797 29.585 39.875C29.6336 39.8681 29.6819 39.8597 29.73 39.85C29.7635 39.844 29.7968 39.8373 29.83 39.83C29.8748 39.819 29.9192 39.8068 29.9633 39.7933C30.0014 39.7831 30.0392 39.772 30.0767 39.76C30.1159 39.7454 30.1548 39.7298 30.1933 39.7133C30.244 39.6944 30.294 39.6738 30.3433 39.6516L38.5833 35.69C38.8856 35.5442 39.1554 35.339 39.3767 35.0866C39.4296 35.0269 39.4797 34.9646 39.5267 34.9C39.5289 34.8961 39.5311 34.8922 39.5333 34.8883C39.5812 34.8211 39.6257 34.7516 39.6667 34.68C39.7041 34.6149 39.7386 34.5482 39.77 34.48C39.7751 34.4706 39.7801 34.4611 39.785 34.4516C39.8095 34.3925 39.8318 34.3325 39.8517 34.2716C39.8603 34.2512 39.8686 34.2306 39.8767 34.21C39.8955 34.1512 39.9122 34.0917 39.9267 34.0316C39.9319 34.0112 39.9369 33.9906 39.9417 33.97C39.953 33.9148 39.9624 33.8592 39.97 33.8033C39.9749 33.7756 39.9794 33.7478 39.9833 33.72C39.9882 33.6701 39.9915 33.6201 39.9933 33.57C39.9967 33.5256 39.999 33.4811 40 33.4366V6.56998C40 6.56831 40 6.56664 40 6.56498C40.0002 6.5472 40.0002 6.52942 40 6.51164C39.9986 6.42808 39.9931 6.34464 39.9833 6.26164C39.9323 5.84525 39.7774 5.44839 39.5327 5.10761C39.288 4.76684 38.9616 4.49311 38.5833 4.31164L30.3433 0.349976C30.0193 0.195359 29.6657 0.112366 29.3067 0.106642L29.305 0.104975ZM30 11.5333V28.4716L19.67 20.005L30 11.5333ZM5 14.29L10.165 20.0016L4.99833 25.7116L5 14.29Z" fill="#5C2D91"/>
</g>
<defs>
<clipPath id="clip0_101_22">
<rect width="40" height="40" fill="white"/>
</clipPath>
</defs>
</svg>
