<svg width="40" height="40" viewBox="0 0 40 40" fill="none" xmlns="http://www.w3.org/2000/svg">
<g clip-path="url(#clip0_101_8)">
<rect x="7" y="10" width="27" height="22" fill="white"/>
<path d="M19.9067 5.44445e-05C14.6185 0.0247327 9.55539 2.14276 5.82483 5.89082C2.09426 9.63887 -5.75817e-05 14.7119 1.18739e-09 20.0001C1.1874e-09 25.3044 2.10714 30.3915 5.85786 34.1422C9.60859 37.8929 14.6957 40.0001 20 40.0001C25.3043 40.0001 30.3914 37.8929 34.1421 34.1422C37.8929 30.3915 40 25.3044 40 20.0001C40 14.6957 37.8929 9.60865 34.1421 5.85792C30.3914 2.10719 25.3043 5.44445e-05 20 5.44445e-05C19.9689 -1.81482e-05 19.9378 -1.81482e-05 19.9067 5.44445e-05V5.44445e-05ZM28.1767 12.0401C28.3433 12.0367 28.7117 12.0784 28.9517 12.2734C29.1111 12.4119 29.2129 12.6052 29.2367 12.8151C29.2633 12.9701 29.2967 13.3251 29.27 13.6017C28.97 16.7651 27.6667 24.4384 27.0033 27.9801C26.7233 29.4801 26.1717 29.9817 25.6367 30.0301C24.4767 30.1384 23.595 29.2634 22.47 28.5267C20.71 27.3717 19.715 26.6534 18.0067 25.5267C16.0317 24.2267 17.3117 23.5101 18.4367 22.3434C18.7317 22.0367 23.8483 17.3817 23.9483 16.9601C23.96 16.9067 23.9717 16.7101 23.855 16.6067C23.7383 16.5034 23.565 16.5384 23.44 16.5667C23.2633 16.6067 20.4517 18.4667 15.005 22.1417C14.205 22.6917 13.4833 22.9584 12.835 22.9417C12.1217 22.9284 10.7483 22.5401 9.72667 22.2084C8.47333 21.8001 7.47833 21.5851 7.565 20.8934C7.61 20.5334 8.10667 20.1651 9.05333 19.7884C14.8833 17.2484 18.77 15.5734 20.7167 14.7651C26.27 12.4551 27.425 12.0534 28.1767 12.0401V12.0401Z" fill="#26A5E4"/>
</g>
<defs>
<clipPath id="clip0_101_8">
<rect width="40" height="40" fill="white"/>
</clipPath>
</defs>
</svg>
