<svg width="40" height="40" viewBox="0 0 40 40" fill="none" xmlns="http://www.w3.org/2000/svg">
<path d="M39.9217 7.61665C38.4241 8.27599 36.8377 8.71122 35.2133 8.90832C36.9235 7.8804 38.204 6.26839 38.8183 4.36998C37.2333 5.29498 35.4767 5.96832 33.6067 6.34332C32.3729 5.02403 30.7381 4.14902 28.9561 3.85415C27.174 3.55929 25.3445 3.86107 23.7516 4.71263C22.1586 5.5642 20.8914 6.9179 20.1468 8.56352C19.4021 10.2091 19.2216 12.0546 19.6333 13.8133C12.8167 13.4916 6.77833 10.2166 2.73333 5.26998C1.99799 6.51967 1.61444 7.94503 1.62333 9.39498C1.62333 12.245 3.07333 14.75 5.27 16.2216C3.9681 16.1802 2.69495 15.8282 1.55667 15.195V15.295C1.55593 17.189 2.21045 19.0249 3.40918 20.4912C4.60791 21.9576 6.27702 22.9641 8.13333 23.34C6.9305 23.6623 5.67069 23.7107 4.44667 23.4816C4.97354 25.1117 5.99611 26.5365 7.37169 27.5575C8.74728 28.5784 10.4073 29.1445 12.12 29.1766C9.21921 31.4532 5.63746 32.6888 1.95 32.685C1.3 32.685 0.651667 32.6467 0 32.5733C3.75951 34.9805 8.13085 36.2583 12.595 36.255C27.6833 36.255 35.925 23.7616 35.925 12.9466C35.925 12.5966 35.925 12.2466 35.9 11.8966C37.51 10.7381 38.8987 9.29968 40 7.64998L39.9217 7.61665Z" fill="#1DA1F2"/>
</svg>
