<svg width="40" height="40" viewBox="0 0 40 40" fill="none" xmlns="http://www.w3.org/2000/svg">
<g clip-path="url(#clip0_102_2)">
<path d="M13.255 25.1099C13.1217 25.3816 13.1217 25.6499 13.1217 25.9199C13.255 26.7816 14.0017 27.4149 14.875 27.4033H17.0317V35.3633C17.0317 36.1733 16.3583 36.8466 15.5483 36.8466H10.9617C10.5694 36.8427 10.1943 36.6849 9.91715 36.4071C9.64003 36.1294 9.48305 35.7539 9.48002 35.3616V27.4049H1.65335C0.440016 27.4049 -0.369984 26.1899 0.170016 25.1099L11.77 4.06494C11.9236 3.78781 12.1486 3.55685 12.4216 3.39602C12.6946 3.2352 13.0057 3.15039 13.3225 3.15039C13.6394 3.15039 13.9504 3.2352 14.2234 3.39602C14.4964 3.55685 14.7214 3.78781 14.875 4.06494L19.73 13.3733L13.255 25.1099V25.1099ZM39.83 25.1099L28.23 4.06494C28.0763 3.78822 27.8514 3.55763 27.5785 3.39709C27.3057 3.23655 26.9949 3.15189 26.6783 3.15189C26.3618 3.15189 26.051 3.23655 25.7782 3.39709C25.5053 3.55763 25.2804 3.78822 25.1267 4.06494L20.135 13.3749L26.61 25.1083C26.745 25.3816 26.745 25.6516 26.745 25.9199C26.6117 26.7816 25.8633 27.4149 24.9917 27.4033H22.8317V35.3633C22.84 36.1799 23.4983 36.8416 24.315 36.8466H29.1717C29.5643 36.8431 29.94 36.6859 30.2179 36.4085C30.4959 36.1312 30.654 35.7559 30.6584 35.3633V27.4049H38.345C39.5617 27.4049 40.3683 26.1899 39.8283 25.1099H39.83Z" fill="#39E09B"/>
</g>
<defs>
<clipPath id="clip0_102_2">
<rect width="40" height="40" fill="white"/>
</clipPath>
</defs>
</svg>
