<svg width="24" height="24" viewBox="0 0 24 24" fill="none" xmlns="http://www.w3.org/2000/svg">
<mask id="mask0_105_2" style="mask-type:alpha" maskUnits="userSpaceOnUse" x="0" y="0" width="24" height="24">
<circle cx="12" cy="12" r="12" fill="#D9D9D9"/>
</mask>
<g mask="url(#mask0_105_2)">
<circle cx="12" cy="12" r="12" fill="#F7DF1E"/>
<rect x="3" y="6" width="17" height="13" fill="#0D1117"/>
<path d="M-3 -4H21V20H-3V-4ZM19.034 14.276C18.859 13.181 18.146 12.261 16.031 11.403C15.295 11.058 14.477 10.818 14.234 10.263C14.143 9.933 14.129 9.753 14.188 9.558C14.338 8.912 15.103 8.718 15.703 8.898C16.093 9.018 16.453 9.318 16.679 9.798C17.713 9.122 17.713 9.122 18.434 8.673C18.164 8.253 18.03 8.072 17.848 7.893C17.218 7.188 16.379 6.828 15.014 6.859L14.309 6.948C13.633 7.113 12.989 7.473 12.599 7.953C11.459 9.244 11.788 11.494 13.168 12.424C14.533 13.444 16.529 13.668 16.784 14.629C17.024 15.799 15.914 16.174 14.818 16.039C14.007 15.859 13.558 15.453 13.063 14.703L11.233 15.754C11.443 16.234 11.683 16.443 12.043 16.863C13.783 18.619 18.133 18.529 18.914 15.859C18.943 15.769 19.154 15.154 18.988 14.209L19.034 14.276ZM10.051 7.031H7.803C7.803 8.969 7.794 10.895 7.794 12.836C7.794 14.068 7.857 15.199 7.656 15.547C7.326 16.236 6.476 16.148 6.09 16.027C5.694 15.831 5.493 15.561 5.26 15.172C5.197 15.067 5.15 14.976 5.133 14.976L3.308 16.101C3.613 16.731 4.058 17.273 4.632 17.618C5.487 18.128 6.636 18.293 7.839 18.023C8.622 17.797 9.297 17.332 9.65 16.612C10.16 15.682 10.052 14.542 10.047 13.266C10.059 11.212 10.047 9.157 10.047 7.087L10.051 7.031Z" fill="#F7DF1E"/>
</g>
</svg>
