<svg width="40" height="40" viewBox="0 0 40 40" fill="none" xmlns="http://www.w3.org/2000/svg">
<g clip-path="url(#clip0_101_18)">
<circle cx="20" cy="20" r="20" fill="#FFFEFE"/>
<path d="M40 20C40 8.955 31.045 0 20 0C8.955 0 0 8.955 0 20C0 29.9833 7.31333 38.2567 16.875 39.7567V25.7817H11.7967V19.9983H16.875V15.595C16.875 10.5833 19.8617 7.81333 24.43 7.81333C26.6167 7.81333 28.9067 8.205 28.9067 8.205V13.1267H26.3833C23.8983 13.1267 23.1233 14.6683 23.1233 16.25V20H28.67L27.7833 25.7833H23.1233V39.7583C32.6867 38.2567 40 29.9817 40 20Z" fill="#1877F2"/>
</g>
<defs>
<clipPath id="clip0_101_18">
<rect width="40" height="40" fill="white"/>
</clipPath>
</defs>
</svg>
