<svg width="40" height="40" viewBox="0 0 40 40" fill="none" xmlns="http://www.w3.org/2000/svg">
<g clip-path="url(#clip0_101_12)">
<path d="M22.5667 20C22.5756 23.0029 21.3923 25.8866 19.2767 28.0177C17.1612 30.1489 14.2863 31.3534 11.2834 31.3666C8.28048 31.3534 5.40559 30.1489 3.29003 28.0177C1.17446 25.8866 -0.00881189 23.0029 4.94138e-05 20C-0.00881189 16.9971 1.17446 14.1134 3.29003 11.9822C5.40559 9.851 8.28048 8.64654 11.2834 8.6333C14.2863 8.64654 17.1612 9.851 19.2767 11.9822C21.3923 14.1134 22.5756 16.9971 22.5667 20ZM34.9334 20C34.9334 25.9 32.4167 30.7 29.3001 30.7C26.1834 30.7 23.65 25.9 23.65 20C23.65 14.1 26.1834 9.29997 29.3001 9.29997C32.4167 9.29997 34.9334 14.1 34.9334 20V20ZM40 20C40 25.2833 39.1167 29.5833 38.0167 29.5833C36.9167 29.5833 36.0334 25.2833 36.0334 20C36.0334 14.7166 36.9167 10.4166 38.0167 10.4166C39.1167 10.4166 40 14.7166 40 20Z" fill="black"/>
</g>
<defs>
<clipPath id="clip0_101_12">
<rect width="40" height="40" fill="white"/>
</clipPath>
</defs>
</svg>
