<svg width="40" height="40" viewBox="0 0 40 40" fill="none" xmlns="http://www.w3.org/2000/svg">
<rect x="3" y="4" width="35" height="33" fill="white"/>
<path d="M34.0783 34.0867H28.155V24.805C28.155 22.5917 28.11 19.7433 25.0683 19.7433C21.98 19.7433 21.5083 22.1517 21.5083 24.6417V34.0867H15.585V15H21.275V17.6017H21.3517C22.1467 16.1017 24.08 14.5183 26.9683 14.5183C32.97 14.5183 34.08 18.4683 34.08 23.61V34.0867H34.0783ZM8.895 12.3883C6.98833 12.3883 5.45667 10.845 5.45667 8.94667C5.45667 7.05 6.99 5.50833 8.895 5.50833C10.795 5.50833 12.335 7.05 12.335 8.94667C12.335 10.845 10.7933 12.3883 8.895 12.3883ZM11.865 34.0867H5.925V15H11.865V34.0867ZM37.0417 0H2.95167C1.32 0 0 1.29 0 2.88167V37.1183C0 38.7117 1.32 40 2.95167 40H37.0367C38.6667 40 40 38.7117 40 37.1183V2.88167C40 1.29 38.6667 0 37.0367 0H37.0417Z" fill="#0A66C2"/>
</svg>
