<svg width="40" height="40" viewBox="0 0 40 40" fill="none" xmlns="http://www.w3.org/2000/svg">
<path d="M5 11L19.5 4L35 11V27L20 37.5L5 27V11Z" fill="black"/>
<path d="M2.5 10L19.925 0L37.35 10L37.5 29.9167L19.925 40L2.5 30V10ZM5.98 14.135V22.0633L11.555 25.1633V31.0233L18.175 34.85V21.0633L5.98 14.135ZM33.8783 14.135L21.6833 21.0633V34.85L28.3033 31.0233V25.1667L33.8783 22.065V14.1333V14.135ZM7.72333 11.0017L19.895 17.9083L32.095 10.9417L25.6433 7.28L19.96 10.5217L14.2433 7.24167L7.72167 11L7.72333 11.0017Z" fill="white"/>
<mask id="path-3-inside-1_103_27" fill="white">
<path fill-rule="evenodd" clip-rule="evenodd" d="M19.925 0L2.5 10V30L19.925 40L37.5 29.9167L37.35 10L19.925 0ZM19.93 1.2L3.5 10.5V29.5L20 39L36.5 29.323V10.57L19.93 1.2Z"/>
</mask>
<path fill-rule="evenodd" clip-rule="evenodd" d="M19.925 0L2.5 10V30L19.925 40L37.5 29.9167L37.35 10L19.925 0ZM19.93 1.2L3.5 10.5V29.5L20 39L36.5 29.323V10.57L19.93 1.2Z" fill="white"/>
<path d="M2.5 10L2.00225 9.13268L1.5 9.42091V10H2.5ZM19.925 0L20.4227 -0.867323L19.925 -1.15297L19.4273 -0.867323L19.925 0ZM2.5 30H1.5V30.5791L2.00225 30.8673L2.5 30ZM19.925 40L19.4273 40.8673L19.9249 41.1529L20.4226 40.8674L19.925 40ZM37.5 29.9167L37.9976 30.784L38.5044 30.4933L38.5 29.9091L37.5 29.9167ZM37.35 10L38.35 9.99247L38.3456 9.41842L37.8477 9.13268L37.35 10ZM3.5 10.5L3.0074 9.62974L2.5 9.91695V10.5H3.5ZM19.93 1.2L20.4222 0.329536L19.9298 0.0510507L19.4374 0.329743L19.93 1.2ZM3.5 29.5H2.5V30.0781L3.00104 30.3666L3.5 29.5ZM20 39L19.501 39.8666L20.0046 40.1566L20.5059 39.8626L20 39ZM36.5 29.323L37.0059 30.1856L37.5 29.8959V29.323H36.5ZM36.5 10.57H37.5V9.98672L36.9922 9.69958L36.5 10.57ZM2.99775 10.8673L20.4227 0.867323L19.4273 -0.867323L2.00225 9.13268L2.99775 10.8673ZM3.5 30V10H1.5V30H3.5ZM20.4227 39.1327L2.99775 29.1327L2.00225 30.8673L19.4273 40.8673L20.4227 39.1327ZM37.0024 29.0493L19.4274 39.1326L20.4226 40.8674L37.9976 30.784L37.0024 29.0493ZM36.35 10.0075L36.5 29.9242L38.5 29.9091L38.35 9.99247L36.35 10.0075ZM19.4273 0.867323L36.8523 10.8673L37.8477 9.13268L20.4227 -0.867323L19.4273 0.867323ZM3.9926 11.3703L20.4226 2.07026L19.4374 0.329743L3.0074 9.62974L3.9926 11.3703ZM4.5 29.5V10.5H2.5V29.5H4.5ZM20.499 38.1334L3.99896 28.6334L3.00104 30.3666L19.501 39.8666L20.499 38.1334ZM35.9941 28.4605L19.4941 38.1374L20.5059 39.8626L37.0059 30.1856L35.9941 28.4605ZM35.5 10.57V29.323H37.5V10.57H35.5ZM19.4378 2.07046L36.0078 11.4405L36.9922 9.69958L20.4222 0.329536L19.4378 2.07046Z" fill="black" mask="url(#path-3-inside-1_103_27)"/>
</svg>
