<svg width="40" height="40" viewBox="0 0 40 40" fill="none" xmlns="http://www.w3.org/2000/svg">
<path fill-rule="evenodd" clip-rule="evenodd" d="M15.7418 10.2038C15.8237 9.68354 16.1574 9.25779 16.6068 9.04226C16.8113 8.94448 17.0395 8.88989 17.2787 8.88989H27.024C28.1787 8.88989 29.2551 8.96567 30.2394 9.12416C30.5206 9.16938 30.794 9.22153 31.06 9.2806C31.3261 9.33968 31.584 9.40528 31.8337 9.47861C31.9588 9.51487 32.0814 9.55317 32.2024 9.5935C32.6857 9.75403 33.1355 9.94307 33.5494 10.1623C34.0375 7.0508 33.5462 4.93344 31.8631 3.01572C30.0101 0.904471 26.6626 0 22.3797 0H9.94695C9.07179 0 8.3266 0.636796 8.19011 1.50134L3.01329 34.3283C2.91103 34.9761 3.41176 35.5616 4.06732 35.5616H11.7425L15.7418 10.2038Z" fill="#27346A"/>
<path fill-rule="evenodd" clip-rule="evenodd" d="M33.5493 10.1622C33.5122 10.3998 33.4711 10.6414 33.4222 10.8903C31.7831 19.308 26.1736 22.2182 19.0093 22.2182H15.3612C14.486 22.2182 13.747 22.8554 13.6105 23.7199L11.2127 38.9211C11.1235 39.4875 11.5615 40 12.1348 40H18.6044C19.3699 40 20.0218 39.4431 20.1412 38.6865L20.2047 38.3577L21.4234 30.6298L21.502 30.2028C21.6214 29.4462 22.2733 28.8893 23.0388 28.8893H24.0065C30.274 28.8893 35.1815 26.3429 36.6156 18.9792C37.2146 15.9024 36.9049 13.334 35.3204 11.5283C34.8413 10.9824 34.2448 10.5305 33.5493 10.1622Z" fill="#2790C3"/>
<path fill-rule="evenodd" clip-rule="evenodd" d="M31.8335 9.47861C31.5837 9.40528 31.3258 9.33968 31.0598 9.28061C30.7937 9.22153 30.5204 9.16938 30.2392 9.12416C29.2549 8.96567 28.1784 8.88989 27.0238 8.88989H17.2785C17.0393 8.88989 16.8111 8.94449 16.6066 9.04227C16.1572 9.25779 15.8235 9.68355 15.7416 10.2038L13.6702 23.3366L13.6104 23.72C13.7468 22.8554 14.4859 22.2182 15.3611 22.2182H19.0092C26.1735 22.2182 31.783 19.308 33.4221 10.8903C33.471 10.6414 33.5121 10.3998 33.5492 10.1623C33.1352 9.94307 32.6854 9.75403 32.2022 9.59351C32.0812 9.55317 31.9586 9.51487 31.8335 9.47861Z" fill="#1F264F"/>
</svg>
