<svg width="40" height="40" viewBox="0 0 40 40" fill="none" xmlns="http://www.w3.org/2000/svg">
<circle cx="20" cy="20" r="20" fill="#1DB954"/>
<path d="M28.9 17.3C23.6 14.1 16.7 13.8 11.7 15.3C10.9 15.6 10.1 15.1 9.9 14.2C9.6 13.4 10.1 12.6 11 12.4C16.8 10.6 24.5 11 30.4 14.5C31.2 14.9 31.4 15.9 31 16.7C30.6 17.4 29.7 17.7 28.9 17.3Z" fill="#000000"/>
<path d="M28 21.8C23.6 19.2 16.9 18.5 11.8 20C11.1 20.2 10.4 19.8 10.2 19.1C10 18.4 10.4 17.7 11.1 17.5C16.9 15.8 24.3 16.6 29.3 19.5C29.9 19.9 30.1 20.7 29.7 21.4C29.3 22 28.6 22.2 28 21.8Z" fill="#000000"/>
<path d="M27.1 26.1C23.5 24 18.9 23.4 13.5 24.4C12.9 24.5 12.4 24.1 12.2 23.5C12.1 22.9 12.5 22.4 13.1 22.2C19 21.1 24.2 21.8 28.2 24.2C28.7 24.5 28.9 25.2 28.6 25.8C28.2 26.2 27.6 26.4 27.1 26.1Z" fill="#000000"/>
</svg>
