<svg width="40" height="40" viewBox="0 0 40 40" fill="none" xmlns="http://www.w3.org/2000/svg">
<path d="M13.1333 20.0667C13.1333 20.5667 13.0722 21.05 12.95 21.5167C12.8389 21.9722 12.6556 22.3833 12.4 22.75C12.1556 23.1167 11.8333 23.4056 11.4333 23.6167C11.0222 23.8389 10.5389 23.95 9.98333 23.95C9.42778 23.95 8.95556 23.8389 8.56667 23.6167C8.17778 23.3833 7.86111 23.0778 7.61667 22.7C7.37222 22.3333 7.18889 21.9167 7.06667 21.45C6.95556 20.9833 6.9 20.5056 6.9 20.0167C6.9 19.5278 6.95556 19.0444 7.06667 18.5667C7.17778 18.0889 7.36667 17.6667 7.63333 17.3C7.87778 16.9222 8.20556 16.6222 8.61667 16.4C9.01667 16.1778 9.5 16.0667 10.0667 16.0667C10.6333 16.0667 11.1111 16.1778 11.5 16.4C11.8889 16.6333 12.2056 16.9389 12.45 17.3167C12.6944 17.6944 12.8667 18.1222 12.9667 18.6C13.0778 19.0778 13.1333 19.5667 13.1333 20.0667V20.0667ZM40 20V35.6333C40 36.1444 39.8167 36.5889 39.45 36.9667C39.0833 37.3222 38.6389 37.5 38.1167 37.5H11.8833C11.3722 37.5 10.9278 37.3167 10.55 36.95C10.1944 36.5833 10.0167 36.1389 10.0167 35.6167V30H1.66667C1.21111 30 0.822222 29.8333 0.5 29.5C0.166667 29.1778 0 28.7889 0 28.3333V11.6667C0 11.2111 0.166667 10.8222 0.5 10.5C0.811111 10.1667 1.2 10 1.66667 10H12.5V4.25C12.5 3.76111 12.6667 3.34444 13 3C13.3333 2.66667 13.75 2.5 14.25 2.5H35.75C36.2389 2.5 36.6556 2.66667 37 3C37.3333 3.33333 37.5 3.75 37.5 4.25V18.0833L39.5667 19.2833H39.5833C39.6944 19.3611 39.7944 19.4611 39.8833 19.5833C39.9611 19.7167 40 19.8556 40 20V20ZM30 6.25V11.25H35V6.25H30ZM30 13.75V18.75H35V13.75H30ZM30 21.25V24.3L35.0833 21.25H30ZM21.25 6.25V11.25H27.5V6.25H21.25ZM21.25 13.75V18.75H27.5V13.75H21.25ZM21.25 21.25V24.6333L25.2667 27.1333L27.5 25.8V21.25H21.25ZM15 6.25V10H18.3333L18.55 10.0167L18.75 10.0833V6.25H15ZM9.96667 26.6333C10.9667 26.6333 11.8556 26.4667 12.6333 26.1333C13.4111 25.7778 14.0722 25.3 14.6167 24.7C15.15 24.0889 15.5556 23.3778 15.8333 22.5667C16.1111 21.7444 16.25 20.85 16.25 19.8833C16.25 18.9611 16.1111 18.1 15.8333 17.3C15.5667 16.5111 15.1722 15.8222 14.65 15.2333C14.1278 14.6444 13.4889 14.1833 12.7333 13.85C11.9778 13.5167 11.1167 13.35 10.15 13.35C9.12778 13.35 8.21667 13.5167 7.41667 13.85C6.62778 14.1833 5.96111 14.6556 5.41667 15.2667C4.86111 15.8667 4.44444 16.5889 4.16667 17.4333C3.88889 18.2556 3.75 19.1611 3.75 20.15C3.75 21.0944 3.89444 21.9611 4.18333 22.75C4.47222 23.55 4.88333 24.2333 5.41667 24.8C5.95 25.3778 6.6 25.8278 7.36667 26.15C8.13333 26.4833 9 26.65 9.96667 26.65V26.6333ZM12.5 35H33.15L20 26.8V28.3333C20 28.7889 19.8333 29.1778 19.5 29.5C19.1778 29.8333 18.7889 30 18.3333 30H12.5V35ZM37.5 34.7833V22.7167L27.6667 28.6167L37.5 34.7833Z" fill="#0078D4"/>
</svg>
