<svg width="40" height="40" viewBox="0 0 40 40" fill="none" xmlns="http://www.w3.org/2000/svg">
<path d="M6 9L20 6L35 9V31L20 34L6 31V9Z" fill="white"/>
<path d="M30.24 21.7783V18.2217L27.5833 20L30.24 21.7783ZM32.3667 23.7683C32.3664 23.8146 32.3631 23.8608 32.3567 23.9067L32.3483 23.9533L32.33 24.0417L32.3133 24.0933C32.305 24.12 32.2967 24.145 32.285 24.1717L32.2617 24.2217C32.2507 24.2459 32.2391 24.2698 32.2267 24.2933L32.195 24.3433C32.157 24.4037 32.1122 24.4596 32.0617 24.51L32.0183 24.5517C31.999 24.5691 31.979 24.5858 31.9583 24.6017L31.91 24.6383L31.8933 24.6517L20.59 32.1883C20.4154 32.3051 20.21 32.3674 20 32.3674C19.79 32.3674 19.5846 32.3051 19.41 32.1883L8.10667 24.65L8.09 24.6367C8.05192 24.6103 8.01572 24.5814 7.98167 24.55L7.93833 24.5083L7.885 24.4517L7.85 24.405C7.80618 24.3482 7.76873 24.2867 7.73833 24.2217L7.715 24.17C7.70455 24.1443 7.69509 24.1181 7.68667 24.0917L7.67 24.0417C7.66333 24.0117 7.65667 23.9817 7.65333 23.9517L7.64333 23.905C7.63694 23.8592 7.6336 23.8129 7.63333 23.7667V16.2317C7.63333 16.185 7.63667 16.14 7.64333 16.0933L7.65167 16.0483L7.67 15.9583L7.68667 15.9083C7.72619 15.7746 7.79444 15.6512 7.88667 15.5467L7.93833 15.49L7.98167 15.4483C8.0158 15.417 8.05199 15.3881 8.09 15.3617L8.10667 15.3483L19.41 7.81333C19.5847 7.69681 19.79 7.63463 20 7.63463C20.21 7.63463 20.4153 7.69681 20.59 7.81333L31.8933 15.3483L31.91 15.3617L31.96 15.3983L32.0183 15.4483C32.035 15.4617 32.0467 15.475 32.0617 15.49C32.1125 15.5401 32.1573 15.5961 32.195 15.6567L32.2267 15.7067C32.2392 15.7301 32.2509 15.754 32.2617 15.7783L32.285 15.8283C32.2967 15.855 32.305 15.8817 32.3133 15.9067L32.33 15.9583C32.3367 15.9883 32.3433 16.0183 32.3467 16.0483L32.3567 16.0933C32.3631 16.1392 32.3664 16.1854 32.3667 16.2317V23.7683ZM20 0C8.955 0 0 8.95333 0 20C0 31.045 8.955 40 20 40C31.0467 40 40 31.0467 40 20C40 8.955 31.0467 0 20 0ZM20 17.4867L16.2417 20L20 22.5167L23.7583 20L20 17.4867ZM21.0633 24.36V29.3183L29.39 23.7683L25.67 21.28L21.0633 24.36ZM10.61 23.7667L18.9367 29.3167V24.36L14.33 21.2783L10.61 23.7667ZM29.39 16.2333L21.0633 10.6833V15.64L25.67 18.7233L29.39 16.2333ZM18.9367 15.64V10.6833L10.61 16.2333L14.33 18.7217L18.9367 15.64ZM9.76 18.2217V21.7783L12.4167 20L9.76 18.2217Z" fill="black"/>
</svg>
