<svg width="40" height="40" viewBox="0 0 40 40" fill="none" xmlns="http://www.w3.org/2000/svg">
<g clip-path="url(#clip0_101_24)">
<path d="M33.8617 7.28304C31.2684 6.09265 28.5316 5.24378 25.7198 4.75771C25.6943 4.75295 25.6679 4.75636 25.6444 4.76746C25.6209 4.77856 25.6015 4.79679 25.589 4.81954C25.2373 5.44504 24.8478 6.26088 24.5752 6.90204C21.5007 6.44171 18.4418 6.44171 15.4305 6.90204C15.1578 6.24654 14.7542 5.44504 14.401 4.81954C14.3879 4.7973 14.3684 4.77952 14.3451 4.76852C14.3218 4.75752 14.2957 4.75381 14.2702 4.75788C11.4581 5.24282 8.72116 6.09161 6.12817 7.28288C6.10599 7.29236 6.0873 7.30849 6.07467 7.32904C0.889007 15.0764 -0.53166 22.6332 0.16534 30.0964C0.167311 30.1146 0.172929 30.1323 0.181861 30.1484C0.190793 30.1645 0.202857 30.1786 0.21734 30.1899C3.63867 32.7025 6.95284 34.2279 10.2055 35.2389C10.2308 35.2464 10.2578 35.2461 10.2829 35.2378C10.308 35.2296 10.3299 35.2139 10.3458 35.1929C11.1152 34.1422 11.801 33.0342 12.3892 31.8692C12.3973 31.8533 12.4019 31.8358 12.4027 31.8179C12.4036 31.8 12.4006 31.7822 12.3941 31.7656C12.3875 31.7489 12.3775 31.7339 12.3647 31.7214C12.3519 31.7089 12.3366 31.6992 12.3198 31.693C11.2318 31.2804 10.196 30.7772 9.19951 30.2059C9.18133 30.1952 9.16607 30.1802 9.15506 30.1623C9.14405 30.1443 9.13764 30.1239 9.13639 30.1028C9.13514 30.0818 9.13908 30.0608 9.14788 30.0416C9.15668 30.0225 9.17006 30.0058 9.18684 29.993C9.39651 29.8359 9.60634 29.6725 9.80651 29.5074C9.8243 29.4927 9.84583 29.4833 9.86868 29.4802C9.89153 29.4771 9.91479 29.4805 9.93584 29.4899C16.4822 32.4787 23.5692 32.4787 30.0382 29.4899C30.0592 29.4799 30.0827 29.476 30.1059 29.4788C30.129 29.4816 30.1509 29.4909 30.169 29.5057C30.3693 29.6707 30.579 29.8359 30.7903 29.993C30.8072 30.0057 30.8206 30.0222 30.8295 30.0413C30.8384 30.0603 30.8425 30.0813 30.8415 30.1023C30.8404 30.1233 30.8341 30.1437 30.8233 30.1618C30.8125 30.1798 30.7974 30.1949 30.7793 30.2057C29.7825 30.788 28.7382 31.2849 27.6577 31.6914C27.6409 31.6978 27.6257 31.7077 27.613 31.7204C27.6003 31.7331 27.5904 31.7483 27.584 31.7651C27.5776 31.7819 27.5748 31.7999 27.5758 31.8178C27.5768 31.8357 27.5816 31.8533 27.5898 31.8692C28.1905 33.0325 28.8763 34.1405 29.6315 35.1912C29.6469 35.2129 29.6688 35.2292 29.694 35.2377C29.7192 35.2463 29.7464 35.2467 29.7718 35.2389C33.0402 34.2277 36.3543 32.7024 39.7757 30.1899C39.7904 30.1791 39.8027 30.1654 39.8117 30.1495C39.8207 30.1336 39.8262 30.116 39.8278 30.0979C40.6618 21.4695 38.4308 13.9747 33.9137 7.33054C33.9026 7.30896 33.8841 7.29205 33.8617 7.28288V7.28304ZM13.3667 25.552C11.3958 25.552 9.77184 23.7425 9.77184 21.5204C9.77184 19.2984 11.3643 17.4889 13.3668 17.4889C15.3848 17.4889 16.993 19.3142 16.9615 21.5205C16.9615 23.7425 15.369 25.552 13.3667 25.552V25.552ZM26.658 25.552C24.6872 25.552 23.0632 23.7425 23.0632 21.5204C23.0632 19.2984 24.6555 17.4889 26.658 17.4889C28.676 17.4889 30.2842 19.3142 30.2527 21.5205C30.2527 23.7425 28.676 25.552 26.658 25.552V25.552Z" fill="#5865F2"/>
</g>
<defs>
<clipPath id="clip0_101_24">
<rect width="40" height="40" fill="white"/>
</clipPath>
</defs>
</svg>
