<svg width="40" height="40" viewBox="0 0 40 40" fill="none" xmlns="http://www.w3.org/2000/svg">
<path d="M13 3L23 2L34 7L38 19L35.5 28.5L30.5 36L21.5 38L13 37L4.5 29.5L1.5 19.5L5 9.5L13 3Z" fill="#C2185B"/>
<path d="M20 40C8.975 40 0 31.025 0 20C0 8.975 8.975 0 20 0C31.025 0 40 8.975 40 20C40 31.025 31.025 40 20 40ZM36.8667 22.7367C36.2833 22.5533 31.5833 21.1483 26.2267 22.0067C28.46 28.1467 29.3717 33.1467 29.5467 34.1867C33.38 31.595 36.1067 27.4867 36.8717 22.7367H36.8667ZM26.675 35.75C26.42 34.25 25.425 29.03 23.025 22.8L22.915 22.8333C13.265 26.1917 9.815 32.875 9.515 33.5C12.3983 35.7633 16.0483 37.11 19.9983 37.11C22.365 37.11 24.615 36.6267 26.665 35.7533L26.675 35.75ZM7.30833 31.45C7.695 30.7833 12.3833 23.025 21.195 20.175C21.42 20.1 21.645 20.035 21.87 19.975C21.4367 19 20.97 18.03 20.4833 17.075C11.95 19.625 3.67667 19.5167 2.92667 19.5L2.92 20.02C2.92 24.4083 4.58333 28.415 7.31 31.445L7.30833 31.45ZM3.275 16.525C4.04167 16.5383 11.08 16.5683 19.07 14.445C16.24 9.415 13.1867 5.18167 12.7367 4.565C7.95667 6.815 4.38667 11.215 3.27667 16.515L3.275 16.525ZM16 3.42C16.47 4.05333 19.575 8.27667 22.37 13.42C28.445 11.145 31.02 7.68667 31.325 7.25C28.3083 4.56667 24.3417 2.94 20 2.94C18.625 2.94 17.2833 3.10667 16 3.415V3.42ZM33.225 9.225C32.8617 9.70833 30 13.38 23.685 15.9583C24.085 16.775 24.4683 17.6 24.8183 18.435C24.9517 18.735 25.0683 19.035 25.185 19.3183C30.8683 18.6017 36.5183 19.7517 37.085 19.8683C37.0517 15.835 35.6183 12.135 33.235 9.235L33.225 9.225Z" fill="#EA4C89"/>
</svg>
