<svg width="40" height="40" viewBox="0 0 40 40" fill="none" xmlns="http://www.w3.org/2000/svg">
<g clip-path="url(#clip0_101_26)">
<path d="M40 9.09495V32.2766C40 33.7833 38.78 35.0033 37.2733 35.0033H30.9083V19.5499L20 27.7333L9.09167 19.5499V35.0049H2.72667C2.36846 35.0049 2.01376 34.9344 1.68283 34.7972C1.35191 34.6601 1.05125 34.4591 0.798033 34.2057C0.544817 33.9524 0.344007 33.6516 0.207077 33.3206C0.0701473 32.9896 -0.000218446 32.6348 5.09419e-07 32.2766V9.09495C5.09419e-07 5.72328 3.84833 3.79828 6.545 5.82161L9.09167 7.73328L20 15.9133L30.9083 7.72995L33.455 5.82161C36.15 3.79995 40 5.72328 40 9.09495Z" fill="#EA4335"/>
</g>
<defs>
<clipPath id="clip0_101_26">
<rect width="40" height="40" fill="white"/>
</clipPath>
</defs>
</svg>
